<svg xmlns="http://www.w3.org/2000/svg" xmlns:xlink="http://www.w3.org/1999/xlink" width="1440" height="900" viewBox="0 0 1440 900">
  <defs>
    <linearGradient id="linear-gradient" x1="0.5" x2="0.5" y2="1" gradientUnits="objectBoundingBox">
      <stop offset="0" stop-color="#f27200" stop-opacity="0.761"/>
      <stop offset="1" stop-color="#df6a01"/>
    </linearGradient>
    <clipPath id="clip-se_connecter_1">
      <rect width="1440" height="900"/>
    </clipPath>
  </defs>
  <g id="se_connecter_1" data-name="se connecter – 1" clip-path="url(#clip-se_connecter_1)">
    <rect width="1440" height="900" fill="#fff"/>
    <rect id="Rectangle" width="485" height="397" rx="137" transform="translate(1042.298 -113.092) rotate(-22)" fill="#fff3e8"/>
    <g id="Groupe_3" data-name="Groupe 3" transform="matrix(-0.208, -0.978, 0.978, -0.208, 475.877, 447.93)" opacity="0.04">
      <path id="Subtract" d="M80.725,39.453C80.725,17.664,62.654,0,40.362,0S0,17.664,0,39.453V62.96a40.363,40.363,0,1,0,80.725,0Z" transform="matrix(0.744, -0.668, 0.668, 0.744, 133.823, 154.581)" fill="#ee8426"/>
      <path id="Subtract-2" data-name="Subtract" d="M218.1,0c-12.906,0-23.368,10.226-23.368,22.841V62.96a74,74,0,1,1-148,0V22.841C46.736,10.226,36.273,0,23.368,0S0,10.226,0,22.841V64.717c0,65.177,54.054,118.014,120.733,118.014S241.467,129.895,241.467,64.717V22.841C241.467,10.226,231,0,218.1,0Z" transform="matrix(0.744, -0.668, 0.668, 0.744, 74, 208.254)" fill="url(#linear-gradient)"/>
      <circle id="Ellipse_4" data-name="Ellipse 4" cx="39.693" cy="39.693" r="39.693" transform="matrix(0.744, -0.668, 0.668, 0.744, 276.95, 306.977)" fill="#ffbb54"/>
    </g>
    <g id="Groupe_2" data-name="Groupe 2" transform="translate(262.623 494.43) rotate(73)" opacity="0.04">
      <path id="Subtract-3" data-name="Subtract" d="M99.046,48.407C99.046,21.673,76.873,0,49.523,0S0,21.673,0,48.407V77.249a49.523,49.523,0,1,0,99.046,0Z" transform="matrix(0.744, -0.668, 0.668, 0.744, 147.399, 178.997)" fill="#ee8426"/>
      <path id="Subtract-4" data-name="Subtract" d="M267.6,0c-15.835,0-28.671,12.547-28.671,28.025V77.249a90.792,90.792,0,1,1-181.583,0V28.025C57.342,12.547,44.506,0,28.671,0S0,12.547,0,28.025v51.38c0,79.97,66.322,144.8,148.134,144.8s148.134-64.828,148.134-144.8V28.025C296.268,12.547,283.431,0,267.6,0Z" transform="matrix(0.744, -0.668, 0.668, 0.744, 74, 244.85)" fill="url(#linear-gradient)"/>
      <circle id="Ellipse_4-2" data-name="Ellipse 4" cx="48.701" cy="48.701" r="48.701" transform="matrix(0.744, -0.668, 0.668, 0.744, 323.01, 365.979)" fill="#ffbb54"/>
    </g>
  </g>
</svg>
