<svg xmlns="http://www.w3.org/2000/svg" xmlns:xlink="http://www.w3.org/1999/xlink" width="83" height="18" viewBox="0 0 83 18">
  <defs>
    <linearGradient id="linear-gradient" x1="0.5" x2="0.5" y2="1" gradientUnits="objectBoundingBox">
      <stop offset="0" stop-color="#f27200" stop-opacity="0.761"/>
      <stop offset="1" stop-color="#df6a01"/>
    </linearGradient>
    <clipPath id="clip-logo_inside">
      <rect width="83" height="18"/>
    </clipPath>
  </defs>
  <g id="logo_inside" data-name="logo inside" clip-path="url(#clip-logo_inside)">
    <rect width="83" height="18" fill="#fff"/>
    <g id="logo_inde" data-name="logo inde" transform="translate(-152 -123)">
      <g id="Groupe_3" data-name="Groupe 3" transform="translate(175.382 122.234)">
        <text id="inside.pro" transform="translate(0 2.5)" fill="#241e0f" font-size="10" font-family="Comfortaa-Bold, Comfortaa" font-weight="700" letter-spacing="-0.025em"><tspan x="0" y="9">inside</tspan><tspan y="9" fill="#f27200">.</tspan><tspan y="9">pro</tspan></text>
        <text id="BY_PROPULSE_GROUP" data-name="BY PROPULSE GROUP" transform="translate(25 15.031)" fill="#666" font-size="2" font-family="SegoeUI, Segoe UI" letter-spacing="0.9em"><tspan x="-23.974" y="0">BY PROPULSE GROUP</tspan></text>
      </g>
      <path id="Subtract" d="M3.818,1.866A1.888,1.888,0,0,0,1.909,0,1.888,1.888,0,0,0,0,1.866V2.978a1.909,1.909,0,1,0,3.818,0Z" transform="matrix(0.744, -0.668, 0.668, 0.744, 161.39, 129.543)" fill="#ee8426"/>
      <path id="Subtract-2" data-name="Subtract" d="M10.315,0A1.093,1.093,0,0,0,9.21,1.08v1.9a3.5,3.5,0,1,1-7,0V1.08A1.093,1.093,0,0,0,1.105,0,1.093,1.093,0,0,0,0,1.08v1.98A5.647,5.647,0,0,0,5.71,8.642a5.647,5.647,0,0,0,5.71-5.581V1.08A1.093,1.093,0,0,0,10.315,0Z" transform="matrix(0.744, -0.668, 0.668, 0.744, 158.561, 132.081)" fill="url(#linear-gradient)"/>
      <ellipse id="Ellipse_4" data-name="Ellipse 4" cx="1.877" cy="1.877" rx="1.877" ry="1.877" transform="matrix(0.744, -0.668, 0.668, 0.744, 168.159, 136.75)" fill="#ffbb54"/>
    </g>
  </g>
</svg>
